<?xml version="1.0" standalone="no"?>
<!DOCTYPE svg PUBLIC "-//W3C//DTD SVG 20010904//EN"
 "http://www.w3.org/TR/2001/REC-SVG-20010904/DTD/svg10.dtd">
<svg version="1.0" xmlns="http://www.w3.org/2000/svg"
 width="360.000000pt" height="360.000000pt" viewBox="0 0 360.000000 360.000000"
 preserveAspectRatio="xMidYMid meet">
<metadata>
Created by potrace 1.14, written by Peter Selinger 2001-2017
</metadata>
<g transform="translate(0.000000,360.000000) scale(0.100000,-0.100000)"
fill="#000000" stroke="none">
<path d="M1753 3345 c0 -26 28 -50 42 -37 5 4 5 2 2 -5 -4 -6 19 -32 55 -61
143 -114 198 -160 250 -207 134 -123 230 -209 254 -228 15 -11 37 -31 50 -44
13 -13 29 -21 36 -17 6 4 8 3 5 -3 -6 -9 66 -77 183 -173 23 -19 54 -48 68
-63 14 -15 32 -25 39 -23 7 3 15 0 19 -6 5 -7 2 -8 -7 -4 -17 9 45 -48 91 -84
18 -14 57 -48 88 -76 102 -93 334 -284 345 -284 12 0 -6 17 -143 141 -131 119
-212 184 -222 181 -5 -1 -7 2 -4 7 7 11 -64 72 -76 65 -5 -3 -7 -1 -6 5 4 14
-203 192 -215 184 -6 -3 -7 -2 -4 4 8 13 -112 115 -126 106 -5 -3 -7 -1 -3 5
3 6 -15 28 -41 49 -27 21 -50 41 -53 44 -7 8 -124 108 -246 210 -56 47 -150
130 -209 184 -185 171 -172 162 -172 130z"/>
<path d="M1620 3354 c1 -15 20 -35 105 -109 44 -38 95 -84 115 -101 19 -17 85
-75 145 -129 61 -54 130 -114 155 -134 25 -20 52 -43 60 -52 13 -15 243 -219
345 -307 59 -51 104 -90 172 -150 33 -29 71 -61 84 -70 13 -9 32 -27 42 -39
10 -13 22 -23 26 -23 5 0 26 -16 47 -36 47 -44 83 -68 89 -62 3 3 -21 26 -52
51 -32 25 -74 60 -93 77 -19 17 -51 43 -70 58 -19 15 -39 32 -45 38 -5 6 -48
43 -95 84 -47 40 -103 89 -125 109 -22 20 -73 65 -112 99 -39 35 -70 69 -67
76 5 14 -150 143 -167 138 -6 -1 -8 2 -5 7 8 12 -49 53 -58 43 -4 -4 -6 -2 -4
5 1 6 -78 80 -177 163 -99 84 -200 171 -225 194 -66 62 -90 80 -90 70z m693
-596 c16 -16 25 -28 20 -28 -5 0 -27 19 -48 42 -41 43 -25 35 28 -14z"/>
<path d="M1890 3342 c0 -13 31 -41 530 -466 14 -11 68 -57 120 -101 52 -44 97
-82 100 -85 3 -3 21 -18 40 -34 39 -31 147 -126 225 -196 27 -25 55 -49 61
-55 6 -5 51 -46 99 -90 47 -44 92 -78 98 -77 7 2 9 0 4 -4 -8 -9 61 -84 78
-84 5 0 -1 9 -15 20 -20 17 -21 19 -5 14 36 -12 -258 262 -539 501 -33 28 -64
55 -70 60 -40 35 -469 394 -650 543 -42 34 -76 59 -76 54z"/>
<path d="M1551 3323 c4 -9 25 -28 189 -174 123 -109 136 -121 120 -113 -8 4
-53 40 -100 79 -111 93 -220 175 -233 175 -13 0 -9 -4 73 -66 36 -27 134 -106
218 -177 93 -78 157 -125 165 -121 7 4 9 4 5 -1 -9 -9 9 -35 24 -35 5 0 6 6 2
13 -4 6 2 3 14 -7 25 -21 31 -36 7 -16 -8 7 -15 9 -15 4 0 -15 52 -54 63 -47
5 3 7 1 3 -5 -8 -13 43 -54 57 -45 5 3 7 2 4 -4 -9 -15 49 -67 64 -58 7 5 10
4 6 -2 -4 -6 40 -51 97 -101 155 -136 367 -316 496 -424 63 -52 146 -124 185
-160 l70 -65 -35 5 c-38 5 -106 61 -277 224 -26 25 -46 37 -54 32 -7 -4 -10
-3 -6 3 8 13 -18 37 -31 29 -10 -6 -55 38 -47 46 7 6 -49 58 -241 224 -174
152 -250 214 -259 214 -11 -1 34 -43 62 -59 10 -5 15 -12 12 -15 -3 -3 -27 15
-55 40 -27 25 -43 42 -35 38 30 -15 3 16 -55 65 -67 56 -92 67 -53 24 l24 -27
-31 25 c-17 13 -27 26 -22 27 4 2 8 7 8 11 0 11 -91 76 -102 73 -5 -1 -7 2 -4
7 8 12 -34 42 -47 34 -6 -3 -7 -1 -4 4 7 11 -353 317 -362 308 -6 -6 -11 -2
211 -198 92 -82 172 -146 178 -142 6 3 7 0 4 -9 -3 -9 -1 -16 5 -16 5 0 20
-11 33 -24 80 -83 205 -177 152 -113 -10 12 -4 9 14 -7 33 -31 45 -49 15 -25
-9 8 -15 9 -12 3 5 -15 201 -184 213 -184 14 0 -35 49 -56 56 -10 3 -18 10
-18 15 0 6 14 0 31 -12 42 -29 85 -73 65 -66 -9 4 -16 3 -16 -1 0 -13 199
-177 214 -177 8 0 18 -4 23 -9 4 -5 3 -6 -4 -2 -24 14 -13 -12 12 -28 34 -22
41 -20 19 7 -10 12 -2 6 19 -12 20 -19 37 -37 37 -40 0 -2 -9 4 -20 14 -11 10
-20 14 -20 9 0 -14 199 -180 211 -176 6 1 8 -1 5 -6 -3 -5 18 -29 46 -53 89
-76 144 -131 123 -124 -10 3 -40 9 -65 12 -49 7 -66 18 -150 96 -30 29 -78 72
-106 97 -114 103 -212 190 -254 229 -25 22 -50 39 -57 36 -8 -2 -10 2 -6 12 5
12 2 15 -10 10 -9 -3 -19 -1 -23 5 -5 7 -2 8 7 4 8 -4 -3 9 -25 28 -21 20 -43
33 -49 29 -6 -3 -7 -1 -4 4 4 6 -9 24 -28 39 -19 16 -49 41 -67 56 -17 15 -35
25 -41 21 -6 -3 -7 -1 -4 4 4 6 -53 60 -126 119 -114 95 -229 195 -382 336
-22 20 -51 46 -65 58 -14 12 -47 42 -73 66 -27 25 -52 43 -55 39 -4 -4 2 -13
12 -21 11 -8 40 -33 65 -56 26 -24 59 -53 75 -66 16 -12 27 -24 25 -27 -3 -2
-51 32 -108 76 -58 43 -107 77 -109 74 -3 -3 -3 -7 -1 -9 66 -57 244 -184 252
-179 5 3 7 1 3 -5 -3 -6 8 -21 26 -33 18 -13 35 -26 38 -29 3 -3 39 -33 80
-65 74 -59 103 -84 269 -234 46 -42 91 -81 100 -87 9 -7 45 -39 81 -73 36 -33
71 -59 78 -56 7 3 11 1 7 -4 -7 -12 96 -102 108 -94 6 3 7 1 4 -4 -9 -14 29
-47 43 -38 6 3 9 1 8 -7 -2 -7 3 -12 10 -10 8 1 11 -2 8 -7 -3 -5 33 -42 82
-82 48 -40 89 -76 92 -79 3 -3 44 -38 93 -78 48 -40 87 -74 87 -76 0 -1 -25 1
-55 5 -48 6 -64 15 -126 68 -39 34 -75 58 -81 55 -6 -4 -8 -3 -5 3 9 14 -39
57 -53 48 -6 -4 -9 -1 -8 7 2 7 -3 12 -10 10 -8 -1 -11 2 -8 7 7 11 -59 62
-69 53 -5 -4 -5 -2 -2 4 8 14 -112 116 -126 107 -6 -3 -7 -2 -4 4 4 5 -71 75
-165 154 -147 123 -398 339 -434 374 -6 5 -53 48 -105 95 -51 47 -117 107
-146 133 -28 27 -57 46 -62 42 -7 -3 -8 0 -5 9 6 16 -10 23 -19 9 -2 -5 -3 -3
-1 4 1 6 -7 19 -18 30 -21 18 -21 18 -14 -1 7 -19 6 -19 -14 -1 -11 10 -20 13
-20 8 0 -16 122 -113 133 -106 6 3 7 1 3 -5 -3 -6 48 -57 121 -119 71 -59 130
-110 133 -113 3 -3 37 -32 75 -64 39 -32 104 -88 145 -125 234 -212 444 -390
453 -384 5 3 7 1 3 -5 -3 -5 11 -24 32 -40 21 -17 60 -51 88 -76 27 -25 55
-44 62 -41 7 3 11 1 8 -4 -4 -5 25 -35 64 -68 44 -37 64 -59 54 -61 -8 -2 -23
0 -32 4 -9 4 -43 7 -74 8 l-57 1 -253 211 c-139 115 -361 300 -493 409 -222
184 -357 301 -478 415 -26 25 -53 46 -60 48 -7 2 -3 -4 7 -12 11 -9 16 -16 11
-16 -5 0 -21 12 -37 27 -15 14 -31 24 -34 20 -9 -9 59 -67 73 -62 7 2 12 -1
10 -8 -1 -7 4 -11 11 -9 8 1 11 -1 8 -6 -3 -5 25 -33 62 -63 37 -30 146 -122
242 -205 96 -82 339 -287 540 -455 l365 -304 -55 -6 c-49 -5 -58 -3 -86 20
-17 14 -195 168 -394 341 -200 173 -434 376 -519 449 -86 74 -194 168 -240
208 -46 40 -88 73 -93 73 -21 0 16 -40 109 -120 54 -47 103 -89 109 -95 6 -5
39 -35 75 -65 35 -30 100 -86 144 -125 44 -38 127 -110 185 -160 58 -49 107
-93 110 -96 3 -3 117 -100 253 -217 136 -116 249 -215 250 -219 1 -4 -7 -9
-18 -11 -13 -1 -44 19 -85 54 -36 31 -92 80 -124 108 -33 28 -87 75 -120 105
-95 84 -133 111 -141 103 -5 -4 -5 -2 -2 4 8 14 -120 127 -134 118 -5 -3 -8
-1 -7 4 4 15 -63 73 -75 65 -6 -3 -7 -1 -3 5 8 13 -64 74 -81 68 -7 -3 -15 0
-19 6 -5 7 -2 8 6 3 38 -23 -8 23 -105 107 -225 195 -289 248 -299 248 -6 -1
5 -14 24 -30 19 -17 29 -30 23 -30 -6 0 -21 11 -34 25 -27 29 -63 52 -58 37 2
-5 54 -50 114 -101 61 -50 117 -97 125 -105 8 -7 65 -55 125 -105 61 -50 124
-104 141 -119 88 -76 129 -109 157 -124 18 -10 28 -18 22 -18 -5 0 1 -9 13
-20 12 -11 26 -20 32 -20 5 0 10 -4 10 -8 0 -8 177 -161 320 -277 74 -60 133
-115 124 -115 -5 0 -19 -3 -30 -6 -21 -5 -52 17 -159 115 -11 10 -90 77 -175
150 -85 72 -162 137 -170 145 -8 7 -46 40 -85 73 -198 168 -268 223 -277 217
-6 -4 -8 -2 -4 4 3 6 -31 41 -81 82 -49 40 -135 117 -192 172 -73 70 -106 95
-112 86 -9 -14 9 -41 22 -32 5 3 8 1 7 -4 -2 -6 32 -39 74 -75 43 -35 114 -99
159 -141 44 -42 85 -73 91 -70 6 4 8 2 5 -3 -6 -9 114 -127 234 -232 20 -17
54 -48 75 -69 22 -20 66 -61 99 -90 33 -29 69 -61 80 -71 20 -18 87 -78 208
-185 37 -33 77 -66 88 -74 21 -14 21 -16 4 -28 -22 -16 -39 -5 -135 85 -36 33
-71 59 -77 56 -7 -2 -12 0 -10 5 3 15 -137 140 -151 135 -7 -3 -11 -1 -8 4 8
12 -141 144 -154 136 -5 -3 -8 0 -5 7 5 15 -96 103 -119 103 -9 0 -33 13 -52
29 -20 16 -35 24 -33 18 5 -15 280 -252 292 -252 4 0 5 6 1 13 -4 6 5 1 19
-12 15 -14 27 -27 27 -29 0 -3 -9 3 -20 13 -11 10 -20 13 -20 8 0 -14 68 -66
78 -59 4 2 16 -2 27 -10 10 -8 14 -14 9 -14 -6 0 -16 6 -23 13 -8 7 -12 7 -10
1 2 -6 29 -32 59 -58 30 -26 69 -61 87 -78 18 -16 37 -27 43 -23 6 3 9 1 8 -7
-2 -7 3 -12 10 -10 8 1 11 -2 8 -7 -7 -11 61 -64 73 -57 5 3 8 -2 7 -12 -1
-18 -21 -35 -47 -39 -17 -3 -381 301 -639 531 -74 67 -137 123 -140 126 -3 3
-66 59 -140 125 -74 66 -137 122 -140 125 -33 33 -83 69 -90 65 -8 -5 108
-113 344 -320 38 -33 74 -64 80 -70 14 -13 217 -187 234 -200 7 -5 29 -26 50
-45 20 -19 75 -69 122 -110 47 -41 87 -77 90 -80 3 -3 43 -38 90 -79 47 -41
86 -77 88 -81 1 -4 -8 -11 -21 -17 -22 -10 -39 3 -223 164 -186 163 -271 239
-382 338 -85 76 -96 84 -105 78 -6 -3 -7 -1 -4 4 4 6 -26 39 -66 74 -39 35
-77 69 -84 75 -72 68 -257 230 -266 232 -7 2 28 -34 78 -80 49 -46 112 -105
140 -132 l50 -49 -46 39 c-25 21 -60 50 -78 64 -18 14 -49 40 -69 59 -56 51
-102 84 -108 78 -3 -2 10 -15 28 -28 18 -13 38 -29 43 -35 33 -39 299 -253
308 -247 5 3 7 1 4 -4 -9 -15 29 -47 45 -37 7 4 10 4 6 -1 -11 -11 12 -36 25
-28 5 3 7 1 3 -5 -8 -13 48 -55 59 -44 5 4 5 2 2 -4 -3 -6 91 -93 210 -195
119 -101 253 -215 297 -253 45 -38 82 -72 84 -76 2 -4 -5 -10 -14 -14 -11 -4
-27 3 -45 20 -15 14 -32 23 -38 19 -7 -4 -10 -1 -9 7 2 7 -3 12 -10 10 -8 -1
-11 2 -8 7 8 13 -461 414 -475 405 -7 -4 -9 -3 -6 3 7 12 -78 93 -97 93 -6 0
-2 -7 8 -15 11 -8 16 -15 11 -15 -5 0 -17 7 -27 17 -10 9 -18 11 -18 6 0 -16
123 -114 137 -109 6 3 19 -5 30 -17 l18 -22 -22 19 c-13 11 -23 15 -23 10 0
-5 35 -39 78 -74 42 -36 79 -67 82 -70 41 -42 142 -120 150 -115 6 4 9 1 8 -7
-2 -7 5 -13 14 -13 10 0 25 -9 35 -20 18 -19 18 -19 -4 -1 -13 11 -23 14 -23
8 0 -16 51 -53 63 -45 5 3 7 1 3 -5 -3 -6 6 -19 22 -30 15 -11 44 -35 65 -54
l37 -35 -37 -11 c-41 -13 -37 -14 -126 68 -31 29 -39 32 -47 20 -12 -19 28
-63 49 -55 9 3 12 3 8 -1 -4 -4 2 -17 13 -29 19 -20 19 -23 4 -29 -9 -3 -24
-1 -33 6 -20 16 -134 111 -141 118 -8 8 -129 111 -206 176 -219 184 -335 283
-474 404 -186 163 -190 165 -190 152 0 -6 107 -103 238 -215 131 -113 245
-211 253 -218 7 -8 45 -41 84 -74 38 -33 124 -107 190 -165 66 -58 141 -123
168 -145 26 -22 47 -43 47 -46 0 -4 -12 -9 -27 -12 -32 -6 -7 -25 -387 300
-143 122 -264 219 -269 216 -6 -3 -7 -1 -3 5 7 12 -50 59 -66 54 -5 -1 -7 2
-4 7 7 11 -59 63 -69 53 -3 -4 -5 -2 -3 4 2 6 -20 32 -48 58 -55 49 -80 61
-48 24 l19 -23 -22 19 c-13 10 -20 22 -18 26 3 5 -9 20 -27 35 -20 17 -34 23
-36 16 -3 -9 -8 -8 -20 1 -9 8 -14 8 -11 2 2 -6 33 -35 68 -64 50 -42 65 -50
73 -39 8 11 9 11 5 -2 -3 -9 4 -24 16 -34 12 -10 37 -31 55 -47 18 -16 38 -25
44 -22 6 4 8 3 5 -3 -7 -11 50 -60 65 -55 5 1 7 -2 3 -7 -6 -11 52 -58 67 -53
5 1 7 -1 4 -6 -3 -5 27 -35 66 -68 266 -220 476 -404 468 -409 -32 -20 -70 -6
-126 43 -31 28 -62 48 -67 45 -6 -3 -7 -1 -3 5 8 13 -43 54 -57 45 -5 -3 -7
-2 -4 4 9 15 -49 67 -65 57 -7 -4 -10 -4 -6 1 10 11 -59 78 -72 70 -6 -4 -9
-3 -8 2 4 13 -24 39 -192 179 -247 206 -360 295 -360 286 0 -5 44 -47 97 -93
54 -46 112 -96 128 -110 17 -15 55 -48 85 -74 30 -26 75 -65 99 -86 24 -21 48
-36 53 -33 4 3 7 1 6 -4 -4 -15 105 -112 120 -107 7 3 11 1 8 -4 -3 -4 13 -25
35 -46 33 -30 43 -35 51 -24 8 11 9 10 4 -3 -4 -12 7 -28 36 -50 22 -18 45
-32 50 -30 5 1 7 -1 4 -6 -3 -5 12 -23 34 -41 22 -18 40 -36 40 -41 0 -22 -57
-8 -90 21 -42 38 -370 311 -613 512 -97 81 -177 144 -177 140 1 -16 37 -51
115 -113 148 -118 602 -496 625 -520 3 -3 20 -17 38 -32 l32 -27 -41 -11 c-22
-6 -46 -10 -53 -8 -7 2 -44 30 -81 63 -38 33 -152 133 -254 223 -102 90 -207
184 -233 208 -27 25 -51 43 -56 40 -4 -2 -14 0 -22 6 -12 8 -11 9 5 4 13 -4 5
8 -23 35 -24 24 -55 43 -73 46 l-31 4 41 -36 c24 -22 45 -34 52 -29 7 4 9 3 6
-4 -9 -13 82 -94 96 -85 5 3 7 2 4 -4 -3 -5 117 -115 268 -244 275 -234 285
-246 224 -248 -15 -1 -251 193 -373 304 -6 6 -33 28 -61 50 -27 22 -57 47 -65
55 -39 36 -144 126 -161 137 -18 14 -53 7 -43 -8 3 -5 10 -9 15 -9 6 0 7 6 3
13 -5 8 -2 8 9 -2 18 -15 23 -26 7 -16 -24 15 -7 -13 20 -33 40 -30 48 -28 19
6 l-24 27 27 -24 c15 -13 25 -27 23 -32 -3 -4 9 -18 27 -30 18 -13 35 -26 38
-29 3 -4 77 -64 165 -135 252 -203 337 -277 328 -286 -21 -21 -70 -13 -104 18
-33 30 -201 172 -288 246 -24 20 -48 34 -54 30 -6 -3 -7 -1 -3 5 8 13 -50 56
-64 47 -5 -3 -7 0 -5 7 8 19 -93 100 -115 93 -11 -3 -20 1 -24 11 -5 14 -4 15
9 4 8 -7 15 -8 15 -2 0 5 -7 16 -17 23 -13 11 -17 11 -21 1 -3 -10 -7 -10 -20
0 -10 9 -14 9 -11 1 6 -16 271 -226 286 -226 7 0 10 -3 8 -7 -2 -3 70 -66 161
-140 145 -119 162 -135 143 -142 -18 -7 -38 5 -117 69 -313 257 -448 363 -461
363 -5 0 -11 6 -14 13 -2 6 -7 9 -11 6 -4 -4 28 -35 70 -70 42 -35 125 -104
184 -154 59 -49 118 -99 131 -109 43 -34 103 -86 127 -109 21 -20 21 -23 5
-34 -9 -7 -26 -13 -38 -13 -13 0 -100 73 -234 198 -217 200 -281 252 -181 146
l55 -57 -56 46 c-57 48 -94 66 -49 24 27 -25 307 -259 383 -320 26 -21 47 -41
47 -45 -1 -4 -16 -14 -34 -22 l-33 -16 -129 108 c-71 59 -134 106 -141 103 -7
-2 -15 1 -19 7 -4 7 -3 8 4 4 7 -4 12 -4 12 1 -1 4 -21 24 -46 43 -26 19 -53
41 -61 49 -9 9 -18 10 -24 4 -7 -7 4 -22 31 -44 23 -19 54 -45 69 -59 103 -93
160 -136 174 -132 7 2 9 0 5 -4 -4 -4 -3 -13 3 -21 14 -16 33 -18 23 -1 -5 7
-3 8 5 4 7 -5 10 -11 7 -14 -4 -3 6 -18 21 -34 14 -15 24 -30 21 -33 -5 -5
-105 77 -224 184 -105 94 -114 101 -114 87 0 -7 11 -21 25 -30 13 -9 50 -40
81 -69 31 -28 62 -55 69 -60 25 -14 140 -127 130 -127 -5 0 -86 63 -179 141
-92 77 -171 137 -174 134 -3 -3 -3 -6 -1 -8 25 -20 272 -225 299 -248 27 -24
31 -32 20 -39 -18 -11 -24 -7 -95 57 -62 56 -95 72 -54 26 13 -15 -6 -1 -43
31 -38 32 -68 61 -68 64 0 5 14 -6 64 -50 11 -10 22 -15 25 -12 7 6 -99 103
-113 104 -5 0 -2 -8 7 -18 10 -10 14 -22 10 -26 -8 -7 57 -70 159 -154 l57
-47 -25 -13 c-24 -13 -29 -10 -81 35 -71 62 -82 69 -118 78 -34 8 -34 8 19
-34 21 -17 42 -28 47 -25 5 3 8 1 7 -5 -2 -5 13 -23 32 -39 l35 -29 -50 -7
c-101 -14 -122 -16 -200 -22 -86 -6 -127 -20 -105 -34 7 -5 23 -7 34 -5 117
19 226 27 226 18 0 -4 -58 -38 -130 -73 -116 -58 -149 -80 -121 -80 5 0 11 -7
13 -15 3 -14 8 -13 38 3 74 39 136 75 151 88 8 8 20 14 26 14 6 0 16 7 23 15
19 23 33 19 86 -25 26 -21 52 -36 57 -33 6 3 7 1 3 -5 -8 -13 33 -44 47 -35 6
3 7 1 4 -4 -4 -6 24 -36 62 -67 71 -58 98 -72 65 -34 -19 23 0 8 97 -73 24
-21 55 -46 69 -58 14 -11 21 -20 17 -21 -5 0 -37 24 -70 53 -83 71 -97 81 -97
71 0 -5 26 -30 58 -56 32 -26 76 -63 98 -84 48 -45 83 -68 90 -61 3 2 -13 18
-35 33 -22 16 -41 33 -41 37 0 8 17 -4 112 -84 21 -17 38 -27 38 -22 0 6 -28
33 -63 61 -34 29 -73 62 -87 75 -35 33 -179 151 -280 230 -47 37 -93 74 -102
83 -9 9 -22 13 -29 8 -7 -4 -10 -3 -5 4 3 6 -3 16 -16 23 -21 11 -21 12 -2 26
46 35 47 34 140 -40 86 -69 465 -381 488 -402 6 -6 88 -78 181 -160 94 -82
175 -154 181 -160 6 -5 46 -41 89 -80 44 -38 104 -93 134 -121 115 -105 221
-196 221 -188 0 7 -29 36 -175 174 -91 86 -529 468 -674 588 -42 35 -98 83
-126 107 -27 24 -120 103 -205 175 -85 72 -156 135 -158 139 -1 3 11 8 27 9
31 2 92 -46 401 -318 9 -8 64 -58 121 -111 139 -129 165 -150 174 -141 5 4 5
2 2 -4 -9 -15 38 -58 54 -49 7 5 10 4 6 -2 -7 -12 43 -60 233 -224 141 -121
242 -199 251 -193 5 3 8 1 7 -5 -3 -12 123 -114 130 -106 12 12 -161 163 -180
157 -5 -1 -7 2 -4 6 9 14 -31 45 -46 36 -7 -4 -10 -3 -5 1 8 10 -41 65 -57 65
-6 -1 -1 -9 12 -19 12 -11 22 -23 22 -27 0 -4 -11 3 -25 16 -13 12 -23 27 -22
33 2 11 -150 147 -165 147 -6 0 -5 -7 2 -15 24 -28 4 -15 -26 17 -16 18 -19
24 -6 14 12 -11 22 -15 22 -10 0 14 -199 180 -211 176 -6 -1 -8 1 -5 6 8 13
-43 54 -56 46 -6 -4 -8 -3 -5 3 4 6 -53 61 -126 123 -72 62 -180 157 -238 212
-141 131 -162 148 -177 148 -7 0 -11 4 -8 9 4 5 0 12 -6 14 -7 3 3 6 23 6 41
1 40 1 211 -141 65 -54 120 -98 122 -98 3 0 17 -11 32 -25 14 -13 31 -22 36
-19 4 3 7 1 6 -4 -4 -14 102 -103 113 -96 5 3 8 1 7 -4 -2 -5 87 -85 197 -177
110 -91 238 -202 285 -244 228 -208 265 -239 274 -234 5 3 6 1 2 -5 -6 -11 91
-102 109 -102 5 1 1 8 -11 18 -11 10 -19 22 -17 28 2 6 -11 22 -29 36 -18 14
-47 39 -63 54 -17 16 -93 83 -170 148 -205 175 -282 242 -360 311 -38 34 -109
96 -158 139 -48 42 -92 74 -97 71 -6 -4 -9 -1 -8 7 2 7 -3 12 -10 10 -8 -1
-11 1 -8 6 8 13 -102 104 -116 96 -6 -4 -8 -3 -5 4 4 5 -43 53 -105 108 -154
132 -155 134 -138 134 8 0 33 -15 55 -34 331 -279 400 -336 409 -336 6 0 -9
18 -34 40 -25 22 -42 40 -38 40 4 0 29 -20 55 -45 26 -25 56 -47 66 -51 9 -3
17 -10 17 -15 0 -6 -14 0 -31 12 -18 12 -30 17 -28 11 5 -16 420 -362 433
-362 6 0 -9 17 -34 38 -25 20 -58 50 -75 65 l-30 29 33 -24 c19 -13 57 -44 85
-71 29 -26 59 -49 67 -52 8 -3 21 -14 27 -25 11 -16 10 -18 -2 -14 -8 4 -15
10 -15 14 0 4 -12 15 -26 25 -15 9 -25 12 -23 7 7 -20 262 -221 272 -215 6 3
7 1 3 -5 -8 -13 33 -44 47 -35 6 3 7 1 4 -4 -7 -12 137 -126 146 -116 7 7 4
10 -115 112 -54 45 -102 80 -108 76 -6 -4 -7 1 -3 11 5 14 3 16 -11 11 -9 -4
-15 -3 -11 2 3 5 -18 30 -47 55 -56 49 -84 61 -52 24 17 -21 16 -21 -9 1 -27
24 -36 38 -17 26 6 -3 10 -3 10 2 0 4 -30 33 -67 63 -36 30 -80 68 -97 83 -17
15 -43 35 -58 44 -16 10 -28 20 -28 23 0 4 -159 139 -354 301 -195 162 -353
295 -351 297 1 2 15 5 31 8 16 3 30 7 33 9 2 2 27 -16 56 -40 28 -25 55 -42
58 -38 4 3 7 0 7 -9 0 -8 57 -66 128 -128 70 -61 148 -131 173 -154 25 -22 68
-60 95 -84 27 -23 56 -48 64 -56 38 -34 120 -104 159 -136 24 -19 53 -45 64
-57 12 -12 56 -49 97 -82 41 -34 86 -72 100 -85 14 -12 70 -59 125 -105 55
-45 107 -87 115 -94 106 -89 131 -109 136 -104 3 3 -43 45 -102 94 -141 115
-384 318 -409 341 -11 10 -72 63 -135 117 -94 81 -225 196 -286 250 -6 6 -32
28 -57 50 -152 131 -170 159 -27 41 91 -74 172 -142 180 -150 17 -16 83 -72
160 -136 30 -25 73 -61 96 -80 23 -19 50 -42 60 -51 50 -40 192 -163 219 -188
17 -15 66 -59 110 -97 44 -37 97 -84 118 -104 43 -39 72 -58 66 -43 -2 6 -47
47 -99 92 -52 46 -126 111 -164 145 -37 33 -74 65 -82 69 -8 4 -25 18 -38 30
-45 43 -82 75 -191 165 -60 51 -117 98 -125 106 -8 7 -49 41 -90 75 -41 34
-86 72 -100 85 -45 41 -393 331 -418 348 l-25 16 42 12 c45 12 44 12 100 -38
14 -13 33 -29 41 -36 8 -7 37 -32 63 -56 40 -36 50 -41 59 -29 8 11 9 11 4 -3
-6 -19 49 -72 65 -62 5 3 8 1 7 -4 -4 -15 63 -73 75 -65 6 3 7 1 3 -5 -7 -11
70 -79 85 -74 5 1 8 -2 7 -7 -5 -14 101 -103 113 -95 7 4 9 3 6 -3 -8 -13 70
-86 84 -78 5 4 8 1 7 -7 -2 -7 3 -12 10 -10 8 1 11 -2 8 -7 -3 -5 12 -24 34
-41 23 -18 54 -46 70 -62 17 -17 35 -26 41 -22 7 4 9 3 6 -3 -9 -14 61 -75 75
-67 6 4 8 3 4 -4 -3 -6 6 -20 21 -32 16 -12 44 -36 63 -53 65 -59 286 -244
313 -262 39 -25 33 -3 -7 26 -18 13 -58 47 -88 74 -214 197 -273 246 -283 237
-5 -4 -5 -2 -2 4 7 12 -159 161 -174 156 -5 -1 -8 2 -7 7 5 14 -122 122 -134
115 -6 -4 -8 -3 -5 3 9 15 -49 67 -64 58 -7 -5 -10 -4 -6 2 8 13 -92 105 -106
96 -5 -3 -7 -1 -3 5 8 13 -64 73 -77 65 -6 -3 -7 -1 -4 4 9 14 -102 105 -116
96 -5 -3 -7 -1 -4 4 8 13 -142 145 -156 136 -6 -3 -7 -1 -3 5 4 6 -5 19 -19
28 -14 9 -25 21 -25 27 0 6 3 7 7 4 3 -4 12 -2 18 3 9 7 74 -43 236 -182 123
-105 226 -194 229 -197 3 -3 52 -47 110 -96 58 -49 107 -92 110 -95 3 -3 34
-30 70 -60 36 -30 67 -57 70 -60 3 -3 52 -45 110 -94 58 -48 122 -103 143
-122 21 -19 43 -31 49 -28 6 4 8 3 5 -3 -4 -6 36 -46 90 -90 54 -43 104 -84
112 -91 16 -16 24 -11 16 11 -8 19 -125 113 -137 109 -5 -1 -7 2 -4 7 8 12
-43 53 -57 44 -5 -3 -7 -2 -4 4 4 6 -69 73 -161 150 -92 77 -262 221 -378 319
-116 98 -276 233 -355 299 -79 66 -159 134 -178 151 l-34 31 30 15 31 15 98
-85 c55 -46 113 -96 129 -111 32 -28 779 -671 849 -730 23 -19 61 -53 86 -75
80 -71 107 -93 136 -112 l29 -19 -20 27 c-11 14 -94 88 -185 164 -91 76 -257
219 -370 318 -113 100 -257 226 -320 281 -63 55 -120 104 -126 110 -6 5 -35
30 -64 55 -29 25 -88 74 -129 109 -42 35 -77 67 -79 71 -2 4 9 11 24 14 20 5
33 1 53 -17 62 -57 780 -672 1006 -862 213 -179 255 -211 255 -197 0 6 -66 66
-147 133 -82 68 -150 125 -153 129 -3 3 -70 60 -150 126 -228 190 -351 294
-400 337 -25 21 -56 49 -70 60 -376 322 -371 316 -299 332 26 6 39 -1 113 -64
46 -38 90 -76 97 -83 17 -16 214 -187 248 -214 13 -10 35 -30 50 -44 14 -14
55 -50 91 -80 36 -30 67 -57 70 -60 3 -3 97 -87 210 -185 178 -156 230 -202
284 -250 82 -73 148 -127 151 -123 3 3 -16 25 -42 49 -132 123 -412 376 -477
433 -17 14 -34 23 -38 20 -5 -3 -7 -1 -6 4 2 5 -26 35 -62 66 -36 32 -78 70
-95 85 -16 15 -98 86 -181 157 -229 196 -263 225 -316 268 -34 28 -44 42 -36
48 20 12 38 10 55 -7 8 -8 19 -12 25 -9 6 4 8 2 5 -3 -4 -6 35 -46 86 -89 50
-44 106 -91 122 -105 82 -73 354 -305 384 -328 19 -14 46 -37 60 -51 31 -29
148 -134 281 -250 52 -45 109 -94 125 -109 73 -64 143 -121 148 -121 14 0 -3
34 -30 58 -53 48 -107 87 -115 84 -4 -1 -7 2 -6 7 2 5 -85 83 -193 173 -160
134 -333 282 -359 308 -3 3 -43 39 -90 80 -47 41 -87 77 -90 80 -10 10 -165
147 -188 166 -13 10 -41 36 -63 57 -23 20 -46 34 -51 30 -6 -3 -8 -1 -5 4 4 6
-2 18 -13 28 -19 17 -19 19 -2 31 9 7 24 14 32 14 8 0 58 -37 111 -82 53 -46
197 -168 319 -273 123 -104 244 -208 270 -230 25 -22 68 -59 95 -81 117 -97
260 -218 265 -223 3 -4 36 -33 75 -66 38 -33 81 -70 94 -82 14 -12 27 -20 30
-17 11 10 -42 61 -195 187 -89 72 -332 278 -540 457 -209 179 -405 348 -438
375 l-58 49 31 9 c26 6 37 4 59 -15 15 -13 151 -129 302 -258 151 -130 361
-307 465 -395 105 -87 192 -161 195 -165 14 -17 218 -190 224 -190 21 0 -8 30
-116 120 -125 102 -161 134 -233 199 -22 20 -71 63 -110 96 -38 33 -72 62 -75
65 -3 3 -52 46 -110 95 -58 50 -107 92 -110 95 -3 3 -52 46 -110 95 -285 245
-321 278 -308 286 7 5 21 6 32 3 13 -4 16 -3 11 6 -5 8 -4 11 3 6 6 -4 9 -13
6 -20 -3 -7 21 -34 58 -64 63 -52 92 -67 67 -35 -8 10 14 -6 49 -36 34 -29 62
-56 62 -59 0 -3 -12 5 -27 19 -56 50 -73 62 -73 51 0 -11 123 -112 136 -112 5
0 0 7 -10 15 -11 8 -15 15 -9 15 5 0 18 -10 29 -22 10 -12 13 -18 5 -13 -9 5
-12 3 -9 -6 3 -8 14 -13 25 -12 11 1 29 -8 39 -20 19 -22 19 -22 -2 -4 -31 26
-41 20 -14 -8 13 -14 30 -23 38 -20 7 2 11 1 7 -4 -3 -5 25 -35 61 -67 53 -47
67 -55 76 -43 8 11 9 11 5 -3 -4 -11 14 -32 56 -68 34 -28 82 -69 107 -90 25
-21 86 -71 135 -111 50 -40 128 -107 175 -149 127 -114 151 -135 158 -135 4 0
13 -4 20 -8 6 -5 12 -4 12 2 0 5 -48 49 -107 98 -91 74 -261 221 -388 335 -16
14 -41 36 -55 48 -14 11 -51 44 -84 73 -74 66 -94 79 -105 73 -4 -3 -17 4 -27
17 l-19 22 23 -19 c12 -11 22 -15 22 -9 0 5 -21 28 -47 50 -283 242 -357 303
-366 303 -5 0 -3 -8 4 -17 11 -15 11 -16 -1 -6 -20 18 -20 53 -1 53 9 0 25 3
36 6 20 5 101 -50 145 -97 8 -9 92 -81 185 -160 94 -79 184 -156 200 -170 17
-15 71 -62 120 -104 131 -113 124 -106 324 -289 101 -92 186 -164 190 -161 3
4 -13 23 -35 43 -23 20 -144 129 -269 242 -125 113 -237 213 -247 222 -11 9
-52 46 -92 81 -62 56 -175 155 -395 347 -58 50 -61 55 -41 62 18 7 52 -18 223
-165 266 -228 533 -452 740 -620 148 -121 187 -148 187 -133 0 2 -66 57 -147
123 -172 138 -637 522 -673 557 -14 13 -81 72 -150 130 -69 59 -126 110 -128
115 -1 4 12 8 30 9 27 2 42 -6 82 -43 27 -26 55 -44 61 -41 7 2 21 -5 32 -17
l18 -22 -22 19 c-13 11 -23 14 -23 8 0 -10 52 -52 65 -52 3 0 3 6 -1 13 -4 6
5 1 19 -12 15 -14 27 -27 27 -29 0 -3 -10 3 -21 14 -12 10 -20 14 -18 7 2 -6
65 -64 139 -128 74 -64 149 -128 166 -143 117 -102 148 -128 160 -135 8 -4 25
-18 38 -30 13 -12 37 -33 53 -47 17 -14 54 -45 83 -70 28 -25 58 -48 64 -52 7
-4 35 -28 62 -52 27 -25 52 -46 56 -46 4 0 18 -12 32 -27 14 -15 28 -25 31
-21 5 4 -37 44 -94 90 -35 28 -348 290 -361 302 -49 45 -183 157 -198 165 -9
5 -14 13 -10 16 5 6 89 -55 118 -85 3 -3 34 -29 70 -58 36 -29 71 -58 79 -64
8 -7 34 -28 57 -48 23 -19 54 -44 68 -55 15 -11 34 -27 44 -36 56 -52 244
-200 249 -195 7 6 -46 54 -69 61 -10 4 -18 10 -18 14 0 4 -64 59 -142 122 -79
63 -145 116 -148 119 -3 3 -54 46 -114 95 -60 50 -194 161 -298 248 -108 90
-193 155 -200 151 -7 -4 -8 -3 -4 4 7 13 -50 59 -68 54 -7 -2 -7 1 1 9 13 13
34 19 63 19 32 0 49 -4 47 -11 -2 -8 46 -51 292 -259 188 -159 345 -294 351
-300 3 -3 64 -56 135 -118 72 -63 142 -124 156 -138 31 -29 41 -31 31 -4 -4
11 -71 73 -148 137 -221 185 -403 341 -424 363 -3 3 -77 69 -165 145 -88 77
-169 148 -179 158 -11 9 -23 17 -28 17 -4 0 -8 7 -8 15 0 9 9 15 24 15 16 0
91 -57 237 -181 118 -99 225 -191 239 -203 14 -13 111 -94 215 -181 105 -87
205 -171 223 -188 24 -23 32 -27 32 -14 0 9 -6 20 -14 24 -16 9 -145 126 -231
210 -33 32 -87 82 -120 112 -33 29 -85 77 -115 105 -101 93 -228 208 -249 224
-11 10 -44 38 -72 65 l-52 47 39 0 c36 -1 57 -17 300 -228 143 -125 285 -247
313 -272 29 -25 65 -58 79 -73 14 -15 32 -25 39 -22 8 2 12 1 8 -4 -6 -11 100
-106 118 -106 7 0 12 5 12 12 0 17 -237 213 -248 206 -6 -3 -7 -2 -4 4 4 6
-42 50 -101 99 -170 141 -452 384 -452 389 0 3 12 5 28 5 20 0 79 -44 242
-181 118 -99 231 -195 250 -213 117 -106 323 -276 329 -271 3 4 -2 11 -12 16
-9 6 -17 15 -17 22 -1 7 -26 32 -58 57 -93 74 -433 357 -497 414 -33 29 -85
75 -117 102 -31 27 -55 51 -53 53 2 2 28 5 59 7 l54 4 104 -86 c138 -114 124
-103 283 -245 77 -69 153 -136 169 -150 16 -13 43 -39 59 -56 35 -38 42 -40
44 -13 2 21 -49 64 -61 52 -4 -4 -6 -2 -4 5 3 11 -66 71 -433 381 -94 79 -122
109 -110 113 9 4 26 3 37 -2 12 -4 25 -5 29 -1 4 4 5 2 3 -5 -1 -7 53 -57 121
-112 68 -55 154 -129 191 -163 208 -195 208 -195 240 -195 35 0 37 -2 -54 71
-39 30 -74 52 -78 50 -5 -3 -7 -1 -6 5 2 5 -43 47 -99 93 -125 103 -291 250
-292 261 -4 39 166 -84 433 -315 68 -58 106 -81 106 -63 0 2 -33 30 -72 62
-59 46 -267 222 -288 243 -3 3 -24 21 -46 42 l-42 36 40 4 c37 3 45 -1 100
-52 97 -88 111 -99 121 -93 6 3 7 2 4 -4 -7 -11 182 -187 191 -178 4 4 0 12
-9 18 -50 38 -71 58 -67 62 3 3 22 -8 43 -25 34 -27 73 -44 50 -21 -51 48
-211 168 -219 164 -5 -3 -6 -1 -3 4 4 6 -17 29 -47 52 -29 23 -60 49 -69 59
-16 18 -15 19 31 20 52 2 49 4 197 -136 39 -37 81 -76 94 -87 l24 -20 -11 21
c-6 11 -57 65 -114 119 -57 54 -95 96 -85 92 10 -4 29 -7 42 -7 15 0 51 -23
93 -60 65 -56 70 -58 70 -34 0 15 -10 31 -24 41 -23 15 -24 40 -1 26 7 -4 17
-8 22 -9 6 -2 46 -12 90 -23 93 -24 125 -26 125 -8 0 9 -50 24 -160 47 -88 18
-160 36 -160 39 0 11 69 11 75 0 5 -6 11 -7 19 0 6 5 47 10 91 11 96 2 135 8
135 21 0 5 -59 9 -132 9 l-133 0 -60 58 c-92 88 -244 226 -326 297 -19 16 -70
61 -114 100 -66 59 -144 124 -235 199 -8 7 -37 31 -63 54 -27 23 -54 42 -60
42 -7 0 -3 -7 8 -15 11 -8 29 -23 40 -34 11 -10 70 -59 130 -110 61 -50 124
-104 140 -119 17 -16 64 -57 105 -93 161 -139 235 -210 235 -226 0 -9 7 -19
15 -21 13 -5 13 -3 0 14 -14 18 -14 18 2 5 10 -7 15 -17 13 -22 -3 -4 28 -34
70 -66 l75 -58 -45 -3 c-43 -3 -49 0 -152 85 -58 48 -190 162 -292 252 -102
89 -202 177 -222 195 -20 17 -74 65 -119 106 -46 41 -89 74 -96 74 -7 -1 -12
1 -11 5 4 13 -48 61 -61 56 -7 -2 -10 0 -7 5 3 5 -11 24 -31 42 -21 18 -43 39
-51 46 -7 7 -19 10 -25 6 -7 -4 -10 -3 -5 1 10 12 -82 97 -98 91 -7 -2 -21 5
-32 17 l-18 22 23 -19 c12 -11 22 -14 22 -8 0 6 -18 25 -40 42 -23 18 -53 44
-69 59 -36 34 -135 123 -189 169 -23 20 -53 48 -65 60 -24 26 -61 49 -56 35z
m-1 -223 c0 -5 -2 -10 -4 -10 -3 0 -8 5 -11 10 -3 6 -1 10 4 10 6 0 11 -4 11
-10z m340 -85 c11 -13 10 -14 -4 -9 -9 3 -16 10 -16 15 0 13 6 11 20 -6z
m-747 -90 c11 -16 13 -23 5 -20 -15 6 -42 45 -31 45 5 0 16 -12 26 -25z m778
-22 c13 -16 12 -17 -3 -4 -10 7 -18 15 -18 17 0 8 8 3 21 -13z m-716 -29 c15
-14 25 -27 23 -29 -3 -3 -17 9 -33 25 -35 37 -28 40 10 4z m96 -85 l54 -51
-57 47 c-53 43 -64 55 -54 55 2 0 28 -23 57 -51z m820 24 c13 -16 12 -17 -3
-4 -10 7 -18 15 -18 17 0 8 8 3 21 -13z m-726 -103 c10 -11 16 -20 13 -20 -3
0 -13 9 -23 20 -10 11 -16 20 -13 20 3 0 13 -9 23 -20z m-55 -55 c13 -14 21
-25 18 -25 -2 0 -15 11 -28 25 -13 14 -21 25 -18 25 2 0 15 -11 28 -25z m89
-74 c22 -20 67 -57 161 -135 8 -7 67 -57 131 -112 64 -54 133 -112 154 -129
20 -16 47 -40 59 -51 11 -12 59 -54 104 -94 58 -50 80 -75 71 -80 -12 -8 -72
32 -109 71 -8 10 -80 74 -160 144 -80 70 -188 167 -240 215 -52 48 -111 101
-130 116 -39 32 -44 37 -80 79 -27 31 -7 20 39 -24z m102 12 c13 -16 12 -17
-3 -4 -10 7 -18 15 -18 17 0 8 8 3 21 -13z m-466 -43 c4 -8 -8 -2 -24 14 -17
17 -31 31 -31 33 0 9 50 -34 55 -47z m1284 -11 c20 -17 56 -49 80 -70 24 -21
47 -39 52 -39 5 0 9 -5 9 -11 0 -10 -54 27 -95 66 -12 11 -38 35 -59 53 -21
17 -35 32 -31 32 4 0 24 -14 44 -31z m-1758 4 c13 -16 12 -17 -3 -4 -10 7 -18
15 -18 17 0 8 8 3 21 -13z m819 -68 c11 -13 10 -14 -4 -9 -9 3 -16 10 -16 15
0 13 6 11 20 -6z m79 -67 c2 -14 -24 3 -44 30 l-20 27 32 -25 c18 -14 32 -28
32 -32z m-299 -50 c0 -12 -6 -9 -26 13 -19 22 -19 22 4 8 12 -8 22 -17 22 -21z
m371 -15 l24 -26 -27 19 c-15 10 -28 22 -28 27 0 12 5 8 31 -20z m-251 -88
c13 -14 21 -25 18 -25 -2 0 -15 11 -28 25 -13 14 -21 25 -18 25 2 0 15 -11 28
-25z m65 -55 c10 -11 16 -20 13 -20 -3 0 -13 9 -23 20 -10 11 -16 20 -13 20 3
0 13 -9 23 -20z m396 -37 c13 -16 12 -17 -3 -4 -17 13 -22 21 -14 21 2 0 10
-8 17 -17z m-320 -30 c13 -16 12 -17 -3 -4 -10 7 -18 15 -18 17 0 8 8 3 21
-13z m-967 -42 c-2 -3 -12 3 -22 13 -16 17 -16 18 5 5 12 -7 20 -15 17 -18z
m1040 -16 c11 -8 16 -15 10 -15 -5 0 -18 7 -28 15 -11 8 -16 15 -10 15 5 0 18
-7 28 -15z m973 -112 c-2 -1 -28 -6 -58 -9 -43 -5 -58 -2 -68 10 -16 19 -7 24
54 28 34 3 83 -17 72 -29z m81 14 c15 -16 15 -17 -14 -14 -36 5 -56 15 -50 26
8 13 46 6 64 -12z m102 3 c12 -8 9 -10 -12 -10 -15 0 -30 5 -33 10 -8 13 25
13 45 0z m-337 -18 c18 -16 18 -17 -5 -23 -21 -5 -58 14 -58 30 0 14 46 9 63
-7z m424 12 c-3 -3 -12 -4 -19 -1 -8 3 -5 6 6 6 11 1 17 -2 13 -5z m-492 -33
c9 -16 -36 -24 -61 -10 -30 16 -31 27 -1 31 23 4 52 -6 62 -21z m-96 -5 c9
-10 9 -16 1 -21 -13 -8 -42 14 -34 26 8 13 20 11 33 -5z m-42 -22 c2 -7 -9
-11 -28 -10 -18 1 -34 7 -37 14 -3 10 5 13 29 10 18 -2 34 -8 36 -14z m-556
-21 c13 -16 12 -17 -3 -4 -10 7 -18 15 -18 17 0 8 8 3 21 -13z m463 8 c7 -10
-28 -21 -64 -20 -22 0 -21 2 10 14 43 17 47 17 54 6z m1166 -23 c0 -6 -6 -5
-15 2 -8 7 -15 14 -15 16 0 2 7 1 15 -2 8 -4 15 -11 15 -16z m-770 -171 c295
-264 429 -396 225 -222 -27 23 -84 71 -125 106 -41 36 -95 80 -119 99 -24 19
-64 54 -90 78 -25 23 -60 52 -77 64 -17 12 -37 30 -43 40 -9 15 -8 18 7 18 9
0 110 -83 222 -183z m811 136 c13 -16 12 -17 -3 -4 -17 13 -22 21 -14 21 2 0
10 -8 17 -17z m-1590 -20 c13 -16 12 -17 -3 -4 -10 7 -18 15 -18 17 0 8 8 3
21 -13z m1439 -68 c13 -14 21 -25 18 -25 -2 0 -15 11 -28 25 -13 14 -21 25
-18 25 2 0 15 -11 28 -25z m-1615 -25 c-23 -15 -32 -17 -43 -7 -12 10 -11 13
9 18 13 4 33 7 44 8 16 1 15 -3 -10 -19z m311 -22 l29 -33 -32 29 c-18 17 -33
31 -33 33 0 8 8 1 36 -29z m-381 2 c-3 -20 -29 -24 -57 -9 l-23 13 25 6 c39
11 58 7 55 -10z m1755 -11 c0 -14 -17 -10 -23 5 -4 10 -1 13 9 9 7 -3 14 -9
14 -14z m-1838 -6 c18 -16 17 -17 -13 -30 -43 -18 -63 -16 -83 6 -17 19 -16
20 26 29 23 5 45 10 47 11 3 1 13 -7 23 -16z m-110 -30 c24 -21 23 -29 -4 -36
-13 -4 -33 2 -52 16 l-30 21 24 7 c38 11 42 10 62 -8z m-79 -27 c31 -21 26
-34 -16 -42 -18 -3 -37 3 -57 18 l-30 22 27 11 c34 15 41 14 76 -9z m1195 -85
c26 -24 38 -38 27 -30 -29 21 -74 59 -120 103 l-40 38 43 -33 c23 -19 64 -54
90 -78z m-1290 56 c22 -23 20 -37 -3 -37 -19 0 -66 40 -60 51 11 16 41 10 63
-14z m-65 -23 c4 -1 10 -2 13 -3 17 -3 -21 -29 -49 -34 -23 -3 -38 1 -55 16
l-23 22 33 11 c24 8 39 8 53 1 11 -6 23 -12 28 -13z m-273 -6 c0 -6 -6 -5 -15
2 -8 7 -15 14 -15 16 0 2 7 1 15 -2 8 -4 15 -11 15 -16z m-155 -48 c4 -8 -8
-2 -24 14 -17 17 -31 31 -31 33 0 9 50 -34 55 -47z m310 24 c13 -14 14 -19 3
-25 -20 -13 -62 -11 -84 5 -18 14 -18 15 6 25 37 14 57 13 75 -5z m2280 -34
c10 -11 16 -20 13 -20 -3 0 -13 9 -23 20 -10 11 -16 20 -13 20 3 0 13 -9 23
-20z m-2396 -4 c10 -11 9 -14 -4 -12 -8 1 -21 8 -27 14 -9 9 -8 12 4 12 8 0
21 -6 27 -14z m-44 -6 c3 -5 1 -10 -4 -10 -6 0 -11 5 -11 10 0 6 2 10 4 10 3
0 8 -4 11 -10z m-25 -14 c0 -2 -11 -6 -25 -8 -13 -3 -22 -1 -19 3 5 9 44 13
44 5z m2540 -38 c0 -13 -5 -9 -31 19 l-24 26 27 -19 c15 -10 28 -22 28 -26z
m-2431 -19 c20 -17 50 -43 67 -58 18 -16 40 -34 51 -42 11 -8 23 -21 28 -29 5
-8 -31 18 -79 58 -49 39 -92 72 -96 72 -4 0 -10 7 -14 15 -8 22 2 18 43 -16z
m92 -5 c23 -25 23 -26 2 -13 -13 7 -25 19 -27 26 -8 19 -2 16 25 -13z m194
-44 c10 -11 16 -20 13 -20 -3 0 -13 9 -23 20 -10 11 -16 20 -13 20 3 0 13 -9
23 -20z m-125 -12 c0 -6 -6 -5 -15 2 -8 7 -15 14 -15 16 0 2 7 1 15 -2 8 -4
15 -11 15 -16z m2251 5 c13 -16 12 -17 -3 -4 -17 13 -22 21 -14 21 2 0 10 -8
17 -17z m-371 -28 c13 -14 21 -25 18 -25 -2 0 -15 11 -28 25 -13 14 -21 25
-18 25 2 0 15 -11 28 -25z m-1785 -56 c68 -59 100 -88 94 -89 -3 0 -25 18 -50
40 -24 22 -59 50 -76 63 -18 12 -35 28 -38 36 -4 10 2 8 17 -5 12 -10 36 -31
53 -45z m-470 -17 c-3 -3 -11 0 -18 7 -9 10 -8 11 6 5 10 -3 15 -9 12 -12z
m415 -17 c13 -14 21 -25 18 -25 -2 0 -15 11 -28 25 -13 14 -21 25 -18 25 2 0
15 -11 28 -25z m2091 -2 c13 -17 13 -17 -6 -3 -11 8 -22 16 -24 17 -2 2 0 3 6
3 6 0 17 -8 24 -17z m-2460 -20 c13 -16 12 -17 -3 -4 -10 7 -18 15 -18 17 0 8
8 3 21 -13z m2519 -23 c8 -5 12 -11 9 -14 -3 -3 -14 1 -25 9 -21 16 -8 20 16
5z m-2464 -22 l19 -23 -25 20 c-14 11 -27 21 -29 22 -2 2 0 3 6 3 5 0 18 -10
29 -22z m489 2 c3 -5 1 -10 -4 -10 -6 0 -11 5 -11 10 0 6 2 10 4 10 3 0 8 -4
11 -10z m202 -170 c26 -23 66 -56 88 -74 82 -68 100 -85 89 -86 -6 0 -22 11
-35 24 -45 44 -181 156 -190 156 -5 0 -9 5 -9 10 0 16 6 13 57 -30z m63 -272
c0 -13 -5 -9 -31 19 l-24 26 27 -19 c15 -10 28 -22 28 -26z m126 -110 l29 -33
-32 29 c-31 28 -38 36 -30 36 2 0 16 -15 33 -32z m328 -57 c-3 -3 -15 6 -27
18 l-22 24 27 -19 c14 -10 24 -21 22 -23z m-258 -3 l29 -33 -32 29 c-31 28
-38 36 -30 36 2 0 16 -15 33 -32z"/>
<path d="M2065 3310 c3 -5 1 -10 -5 -10 -15 0 -8 -7 120 -114 58 -49 150 -131
204 -182 55 -51 104 -90 109 -87 6 3 7 1 4 -4 -6 -9 38 -52 197 -195 34 -31
41 -20 10 14 -16 18 -20 26 -10 18 11 -8 17 -10 15 -4 -8 21 -179 165 -189
159 -6 -4 -9 -3 -8 2 4 11 -20 35 -117 118 -44 37 -121 108 -172 157 -61 59
-96 87 -105 82 -7 -4 -10 -3 -5 1 4 5 -3 19 -15 32 -21 23 -45 32 -33 13z
m499 -449 c-2 -3 -12 3 -22 13 -16 17 -16 18 5 5 12 -7 20 -15 17 -18z m77
-68 c27 -29 28 -32 7 -17 -22 16 -54 54 -45 54 2 0 19 -16 38 -37z"/>
<path d="M2200 3294 c0 -4 15 -23 33 -42 25 -27 27 -32 10 -23 -42 22 -23 2
31 -33 30 -19 112 -86 183 -148 70 -63 187 -163 258 -223 72 -60 159 -137 195
-171 94 -89 146 -134 155 -134 4 0 2 6 -4 13 -6 8 -8 16 -5 19 3 3 -49 50
-114 104 -66 55 -169 144 -229 199 -133 123 -208 187 -306 264 -41 33 -105 88
-141 122 -36 34 -66 58 -66 53z"/>
<path d="M1200 3225 c0 -5 21 -32 48 -59 l47 -49 -60 46 c-32 25 -62 44 -65
41 -3 -3 4 -12 15 -19 11 -8 29 -23 40 -33 11 -10 58 -50 105 -87 92 -74 157
-133 228 -208 30 -31 51 -45 62 -42 10 3 25 -4 36 -17 l19 -23 -23 19 c-41 35
-32 11 14 -33 24 -25 47 -41 51 -38 3 4 -6 16 -21 28 -15 12 -25 23 -22 26 2
3 35 -21 73 -52 37 -31 82 -67 98 -81 17 -14 37 -31 45 -38 8 -7 83 -71 165
-141 262 -222 470 -407 435 -389 -13 7 -342 279 -410 338 -264 233 -352 307
-357 303 -4 -5 27 -37 91 -89 12 -10 37 -33 56 -51 19 -18 64 -57 100 -87 36
-30 82 -71 103 -90 21 -19 46 -39 55 -44 10 -5 19 -13 22 -16 5 -7 109 -94
185 -155 20 -16 44 -36 52 -44 59 -57 108 -90 115 -78 6 9 10 9 20 -1 6 -6 17
-12 23 -12 10 0 -24 33 -104 99 -24 20 -58 49 -75 65 -50 47 -510 440 -552
472 -22 16 -43 34 -49 40 -5 5 -38 34 -71 62 -44 37 -67 50 -80 46 -14 -4 -16
-3 -5 4 15 11 -2 28 -18 18 -5 -3 -15 2 -22 12 -13 15 -12 16 4 3 10 -8 17 -9
17 -3 0 6 -9 16 -19 22 -11 5 -26 16 -34 24 -7 8 -43 38 -78 67 -35 29 -108
98 -161 154 -54 55 -98 96 -98 90z"/>
<path d="M1125 3150 c10 -11 20 -18 23 -16 5 6 -23 36 -34 36 -4 0 1 -9 11
-20z"/>
<path d="M2440 3157 c0 -7 23 -33 51 -58 28 -24 63 -56 78 -70 15 -14 54 -45
86 -70 33 -24 77 -60 99 -79 21 -19 43 -34 48 -32 5 1 7 -2 4 -6 -5 -8 114
-122 172 -167 7 -5 24 -21 37 -35 13 -13 27 -22 30 -19 3 3 -36 44 -87 90 -51
46 -104 95 -118 108 -14 13 37 -18 113 -69 77 -50 141 -89 144 -87 2 3 -64 52
-149 108 -148 100 -261 187 -342 262 -22 20 -44 33 -49 30 -6 -3 -7 -1 -4 4 4
6 -18 32 -47 57 -58 49 -66 53 -66 33z"/>
<path d="M970 3081 c0 -5 5 -13 10 -16 6 -3 10 -2 10 4 0 5 -4 13 -10 16 -5 3
-10 2 -10 -4z"/>
<path d="M950 3062 c0 -12 50 -45 57 -38 3 3 14 1 24 -5 11 -5 19 -6 19 -1 0
12 -50 45 -57 38 -3 -3 -14 -1 -24 5 -11 5 -19 6 -19 1z"/>
<path d="M871 2963 c2 -7 38 -42 79 -78 41 -36 86 -77 100 -89 127 -116 233
-206 238 -201 3 3 -10 18 -29 34 -34 29 -69 60 -124 110 -26 24 -175 156 -244
215 -13 12 -22 16 -20 9z"/>
<path d="M830 2956 c0 -3 35 -35 78 -71 42 -37 108 -94 146 -128 38 -34 77
-68 87 -75 10 -7 35 -29 56 -48 56 -53 103 -88 110 -81 3 4 22 -7 41 -23 20
-16 38 -27 41 -24 7 7 -80 84 -94 82 -24 -1 -34 4 -61 31 -16 15 -81 72 -144
127 -63 54 -120 103 -126 109 -7 5 -31 26 -54 45 -23 19 -48 41 -55 48 -14 12
-25 16 -25 8z"/>
<path d="M667 2794 c-10 -10 22 -36 34 -28 7 4 9 3 6 -3 -9 -14 212 -205 226
-196 5 3 7 1 4 -4 -8 -13 29 -47 42 -38 6 3 9 0 7 -7 -6 -18 69 -80 100 -84
14 -1 24 1 22 5 -2 5 -41 40 -88 80 -47 39 -94 80 -105 91 -25 25 -42 26 -24
3 13 -16 12 -17 -3 -5 -10 8 -16 18 -15 22 3 13 -65 70 -76 63 -6 -3 -7 -1 -3
5 8 13 -43 54 -57 45 -5 -3 -7 -1 -3 5 3 6 -6 20 -20 31 -28 22 -37 25 -47 15z
m393 -328 c9 -15 3 -12 -19 8 -17 17 -31 31 -31 33 0 9 39 -23 50 -41z"/>
<path d="M2761 2687 c30 -28 44 -43 30 -31 -52 41 -64 49 -60 38 8 -20 90 -87
109 -89 10 -1 25 -7 34 -14 9 -8 16 -9 16 -3 0 5 -19 26 -42 45 -24 20 -61 52
-83 72 -63 55 -66 41 -4 -18z"/>
<path d="M622 2711 c-10 -6 25 -40 124 -122 183 -152 284 -238 373 -318 41
-36 100 -88 130 -115 31 -27 78 -68 105 -92 26 -24 53 -41 59 -37 5 3 7 2 4
-4 -3 -5 21 -33 55 -63 47 -42 62 -50 69 -39 11 17 -46 73 -63 63 -6 -4 -8 -3
-4 4 3 6 -8 21 -26 34 -18 12 -40 30 -48 39 -8 9 -100 88 -205 174 -104 87
-229 193 -277 237 -111 101 -134 119 -142 110 -4 -4 -6 -2 -4 3 5 17 -55 76
-71 70 -9 -3 -12 -3 -8 1 8 8 -11 34 -25 34 -5 0 -6 -6 -2 -12 4 -7 -2 -4 -14
6 -26 22 -30 35 -5 15 14 -12 16 -12 12 0 -7 19 -20 23 -37 12z"/>
<path d="M2850 2593 c0 -17 38 -45 51 -37 8 4 10 3 5 -4 -4 -6 6 -19 21 -29
15 -10 39 -28 53 -40 14 -12 44 -36 67 -55 23 -18 69 -57 103 -86 34 -29 66
-50 71 -46 5 3 16 0 24 -6 10 -8 15 -9 15 -2 0 6 -42 40 -92 75 -51 35 -131
99 -177 140 -46 42 -88 74 -93 71 -5 -3 -18 2 -29 12 -10 9 -19 13 -19 7z
m361 -280 c13 -16 12 -17 -3 -4 -17 13 -22 21 -14 21 2 0 10 -8 17 -17z"/>
<path d="M3067 2539 c6 -6 9 -18 6 -25 -3 -8 0 -14 7 -14 6 0 8 5 4 12 -4 6 9
-1 30 -17 53 -40 54 -26 1 18 -40 34 -74 52 -48 26z"/>
<path d="M3090 2493 c0 -5 11 -20 25 -33 14 -13 25 -19 25 -13 0 5 -11 20 -25
33 -14 13 -25 19 -25 13z"/>
<path d="M2635 2290 c10 -11 20 -18 23 -15 7 6 -18 35 -31 35 -5 0 -2 -9 8
-20z"/>
<path d="M407 1344 c-6 -6 61 -67 368 -331 229 -197 476 -417 653 -582 146
-135 165 -151 172 -145 5 5 -78 87 -230 228 -41 38 -226 200 -410 360 -184
159 -337 293 -340 296 -27 29 -209 178 -213 174z"/>
<path d="M495 1150 c18 -20 18 -21 -1 -14 -27 10 -18 1 131 -120 72 -58 137
-112 145 -120 8 -7 101 -82 205 -166 105 -84 222 -181 260 -215 39 -35 81 -72
95 -83 14 -11 45 -38 69 -60 33 -32 46 -38 56 -29 16 15 19 11 -162 154 -81
64 -166 132 -188 152 -22 20 -67 59 -100 87 -33 28 -82 70 -108 93 -27 23 -53
38 -59 35 -6 -4 -8 -2 -5 3 4 6 -13 27 -37 47 -45 37 -63 45 -50 24 4 -7 3 -8
-4 -4 -6 4 -8 14 -5 23 5 13 2 15 -11 10 -9 -4 -15 -3 -12 2 6 9 -62 71 -211
191 -22 18 -27 11 -8 -10z m65 -55 c13 -14 21 -25 18 -25 -2 0 -15 11 -28 25
-13 14 -21 25 -18 25 2 0 15 -11 28 -25z m64 -54 c-2 -3 -12 3 -22 13 -16 17
-16 18 5 5 12 -7 20 -15 17 -18z m70 -60 c-2 -3 -12 3 -22 13 -16 17 -16 18 5
5 12 -7 20 -15 17 -18z m711 -591 c10 -11 16 -20 13 -20 -3 0 -13 9 -23 20
-10 11 -16 20 -13 20 3 0 13 -9 23 -20z"/>
<path d="M601 966 c2 -2 52 -46 110 -98 58 -53 112 -98 120 -100 8 -3 11 -9 7
-13 -4 -4 -25 7 -46 26 -65 57 -133 114 -148 122 -8 4 -26 19 -41 33 -14 13
-31 24 -37 23 -6 0 7 -14 28 -32 22 -18 84 -69 139 -114 93 -77 129 -100 111
-71 -10 16 49 -27 67 -48 11 -15 12 -16 0 -10 -30 19 -3 -14 44 -53 49 -40 73
-52 59 -29 -4 7 -3 8 4 4 6 -4 9 -12 7 -19 -5 -13 203 -180 231 -186 17 -3 17
-1 4 14 -30 36 -132 115 -141 109 -5 -3 -8 -2 -7 3 5 15 -40 56 -53 48 -7 -5
-10 -4 -6 2 3 5 -49 57 -115 114 -67 57 -166 143 -220 192 -54 48 -104 87
-110 87 -6 0 -9 -2 -7 -4z m383 -333 c8 -19 2 -16 -25 13 -23 25 -23 26 -2 13
13 -7 25 -19 27 -26z"/>
<path d="M980 921 c0 -14 58 -53 69 -47 4 3 17 -4 27 -17 l19 -22 -22 19 c-13
11 -23 15 -23 9 0 -5 30 -34 68 -64 37 -30 72 -59 77 -65 6 -5 39 -35 75 -65
36 -29 67 -56 70 -59 3 -3 21 -18 40 -34 19 -15 101 -93 182 -172 81 -79 149
-140 153 -135 3 5 -5 17 -17 25 -12 9 -19 18 -16 21 3 3 17 -4 31 -16 15 -11
27 -16 27 -11 0 10 -63 62 -76 62 -3 0 -1 -7 6 -15 21 -25 1 -17 -28 12 -15
15 -19 21 -9 13 33 -24 30 -1 -3 27 -52 44 -67 53 -75 45 -5 -4 -5 -2 -2 5 4
6 -14 28 -44 52 -49 39 -143 123 -279 251 -35 33 -70 58 -76 56 -7 -3 -22 7
-35 22 l-24 27 28 -24 c15 -14 27 -20 27 -13 0 14 -89 87 -97 78 -3 -3 -21 6
-40 20 -18 14 -33 21 -33 15z m621 -528 c13 -16 12 -17 -3 -4 -17 13 -22 21
-14 21 2 0 10 -8 17 -17z"/>
<path d="M850 721 c0 -10 31 -31 45 -31 11 0 -5 20 -26 30 -12 7 -19 7 -19 1z"/>
</g>
</svg>
